<?xml version="1.0"?>
<svg xmlns="http://www.w3.org/2000/svg" xmlns:xlink="http://www.w3.org/1999/xlink" width="422.455688" height="32.0934143">
	<defs />
	<g transform="matrix(1 0 -0 1 7.99998 8.00001)">
		<svg width="1223.9303" height="87.0727081">
			<defs />
			<path d="M 9.53802 3.26939 C 9.31351 3.2698, 9.1115 3.28084, 8.93157 3.30251, 8.75204 3.3246, 8.5901 3.38103, 8.44616 3.47222, 8.33861 3.53356, 8.25682 3.6178, 8.20039 3.72454, 8.14436 3.83168, 8.11615 3.94372, 8.11615 4.06109 L 8.11615 8.89634 C 8.11615 9.34167, 8.04009 9.77147, 7.88714 10.1857, 7.7342 10.6004, 7.50724 10.9774, 7.20627 11.3172, 6.92328 11.6272, 6.58877 11.8705, 6.20233 12.0468, 5.81589 12.2234, 5.40695 12.3118, 4.97552 12.3118, 4.49952 12.3118, 4.04438 12.2259, 3.6109 12.0533, 3.17743 11.8816, 2.79222 11.6362, 2.45525 11.3172, 2.12729 10.9991, 1.87252 10.6331, 1.69054 10.2184, 1.50857 9.80418, 1.41737 9.36335, 1.41737 8.89634 L 1.41737 3.6816 C 1.41737 3.60349, 1.40184 3.53274, 1.37035 3.46936, 1.33886 3.40638, 1.29142 3.36345, 1.22845 3.34136, 1.1119 3.30251, 0.93892 3.28084, 0.709916 3.27634, 0.480913 3.27225, 0.242503 3.2698, -0.00490275 3.26939 L -0.00490275 2.73287 C 0.723002 2.75086, 1.42187 2.75945, 2.0913 2.75904, 2.77422 2.75945, 3.47759 2.75086, 4.20059 2.73287 L 4.20059 3.26939 C 3.95359 3.2698, 3.71437 3.27225, 3.48291 3.27634, 3.25145 3.28084, 3.0797 3.30251, 2.96724 3.34136, 2.90426 3.36345, 2.85724 3.40638, 2.82575 3.46936, 2.79467 3.53274, 2.77872 3.60349, 2.77872 3.6816 L 2.77872 8.89634 C 2.77872 9.28483, 2.81471 9.65696, 2.88668 10.0123, 2.95865 10.3681, 3.10669 10.6895, 3.33119 10.977, 3.52912 11.226, 3.76957 11.4223, 4.05256 11.5663, 4.33554 11.7102, 4.64347 11.7822, 4.97552 11.7818, 5.32639 11.7822, 5.66008 11.7082, 5.9766 11.5597, 6.29311 11.4117, 6.56833 11.2109, 6.80183 10.9574, 7.05823 10.6785, 7.24798 10.3616, 7.37148 10.0058, 7.49497 9.65042, 7.55672 9.28074, 7.55672 8.89634 L 7.55672 4.06109 C 7.55672 3.94372, 7.52892 3.83249, 7.47248 3.72781, 7.41646 3.62312, 7.33876 3.53602, 7.2398 3.46568, 7.09626 3.37449, 6.93473 3.31887, 6.7548 3.29924, 6.57528 3.27961, 6.37326 3.2698, 6.14835 3.26939 L 6.14835 2.73287 C 6.73722 2.75086, 7.30318 2.75945, 7.84666 2.75904, 8.39054 2.75945, 8.95406 2.75086, 9.53802 2.73287 L 9.53802 3.26939 Z" stroke="none" fill="#000000" />
			<path d="M 1.04518 2.3716 L 1.04518 1.93558 C 0.964804 2.03588, 0.835875 2.13321, 0.658397 2.2271, 0.481148 2.32099, 0.282831 2.36794, 0.0639032 2.36794, -0.167391 2.36794, -0.386318 2.32282, -0.592651 2.2326, -0.798754 2.14237, -0.977377 2.01756, -1.12852 1.85863, -1.29203 1.6878, -1.41592 1.49864, -1.50019 1.29093, -1.58447 1.08345, -1.62683 0.864756, -1.62683 0.634836, -1.62683 0.405374, -1.58263 0.184385, -1.4947 -0.0281308, -1.40653 -0.240646, -1.27829 -0.428658, -1.10974 -0.592396, -0.941195 -0.755905, -0.748603 -0.882315, -0.532194 -0.971627, -0.315785 -1.06071, -0.0893004 -1.10537, 0.147032 -1.10559, 0.350845 -1.10537, 0.536567 -1.06185, 0.70374 -0.975291, 0.871142 -0.888498, 0.989995 -0.800103, 1.0603 -0.709875 L 1.0603 -2.23413 C 1.0603 -2.29733, 1.05732 -2.35893, 1.05091 -2.41893, 1.04473 -2.4787, 1.02022 -2.5245, 0.9774 -2.55656, 0.934576 -2.58565, 0.866562 -2.60259, 0.773586 -2.60763, 0.680611 -2.61244, 0.578704 -2.61496, 0.467866 -2.61519 L 0.467866 -2.91198, 1.65663 -2.99991, 1.65663 1.60215 C 1.65663 1.66581, 1.65983 1.72696, 1.66601 1.78558, 1.67243 1.84421, 1.69762 1.88817, 1.74159 1.91749, 1.78555 1.9468, 1.85426 1.96466, 1.94723 1.97062, 2.04044 1.9768, 2.14349 1.97978, 2.25662 1.97955 L 2.25662 2.28 Z M 1.04518 -0.295836 C 0.962286 -0.459345, 0.84389 -0.594228, 0.690458 -0.700486, 0.537025 -0.806744, 0.360921 -0.859873, 0.162146 -0.860102, 0.00367522 -0.859873, -0.144719 -0.822545, -0.283038 -0.748119, -0.421356 -0.673464, -0.540896 -0.570412, -0.641658 -0.438735, -0.752267 -0.289424, -0.823258 -0.122709, -0.85486 0.0616388, -0.886234 0.246216, -0.902035 0.437205, -0.902035 0.634836, -0.902035 0.832924, -0.888066 1.02231, -0.860586 1.20299, -0.832876 1.38391, -0.767381 1.5536, -0.664329 1.71207, -0.578682 1.83688, -0.469905 1.93718, -0.33777 2.01275, -0.205634 2.08855, -0.0666291 2.12634, 0.0790175 2.12611, 0.297945 2.12634, 0.491683 2.06588, 0.660229 1.94497, 0.828776 1.82405, 0.957247 1.66948, 1.04518 1.48123 Z" stroke="none" fill="#000000" transform="matrix(1.12 0 0 1 12 11.6474)" />
			<path d="M 1.82757 1.35666 C 1.78497 1.66215, 1.64093 1.90718, 1.39567 2.09153, 1.1504 2.27588, 0.854074 2.36794, 0.506675 2.36794, 0.275381 2.36794, 0.055308 2.32282, -0.153543 2.2326, -0.362395 2.14237, -0.544682 2.01756, -0.700863 1.85863, -0.864372 1.69283, -0.988263 1.50482, -1.07254 1.2946, -1.15681 1.0846, -1.19918 0.864756, -1.19918 0.634836, -1.19918 0.400565, -1.1575 0.174767, -1.0746 -0.0427871, -0.991469 -0.260112, -0.866891 -0.453162, -0.700863 -0.621938, -0.544682 -0.785447, -0.362395 -0.913002, -0.153543 -1.0046, 0.055308 -1.0962, 0.275381 -1.14201, 0.506675 -1.14223, 0.652779 -1.14201, 0.798655 -1.12666, 0.94453 -1.0962, 1.09063 -1.06552, 1.22208 -1.01743, 1.3391 -0.951474, 1.45612 -0.885521, 1.55231 -0.799416, 1.62765 -0.693158, 1.70322 -0.5869, 1.74078 -0.461635, 1.74078 -0.317821, 1.74078 -0.190495, 1.70001 -0.0940838, 1.61826 -0.0281308, 1.53651 0.0378225, 1.44651 0.0707989, 1.34826 0.07057, 1.25025 0.0707989, 1.16048 0.0378225, 1.07873 -0.0281308, 0.996972 -0.0940838, 0.95598 -0.190495, 0.95598 -0.317821, 0.95598 -0.444689, 0.999949 -0.542244, 1.08789 -0.610946, 1.16346 -0.664533, 1.24544 -0.692471, 1.33338 -0.695219 L 1.26147 -0.695219 C 1.21888 -0.73415, 1.12567 -0.774912, 0.982316 -0.817736, 0.838959 -0.860331, 0.680489 -0.881857, 0.506675 -0.882086, 0.366066 -0.881857, 0.230725 -0.843843, 0.101109 -0.768271, -0.0285074 -0.692471, -0.13591 -0.591251, -0.221558 -0.464383, -0.324609 -0.305454, -0.392624 -0.133014, -0.425371 0.0524786, -0.45789 0.238201, -0.474378 0.432396, -0.474378 0.634836, -0.474378 0.828115, -0.454913 1.01498, -0.415982 1.19567, -0.377051 1.37658, -0.302167 1.54261, -0.191329 1.69375, -0.100644 1.81856, 0.0106523 1.91817, 0.142559 1.9926, 0.274694 2.06726, 0.413699 2.10435, 0.559575 2.10412, 0.828883 2.10435, 1.04781 2.03245, 1.21636 1.88817, 1.3849 1.74413, 1.49941 1.55841, 1.55963 1.33101, 1.57475 1.27261, 1.61139 1.2433, 1.6691 1.24307 L 1.73711 1.2504 C 1.79757 1.26528, 1.82757 1.30078, 1.82757 1.35666 Z" stroke="none" fill="#000000" transform="matrix(1.12 0 0 1 16.2543 11.6474)" />
			<polyline points="-4.69 -1.407 4.69 -1.407" fill="none" stroke="#000000" stroke-width="0.535999954" stroke-linecap="round" stroke-linejoin="round" transform="matrix(1 0 0 1 27.0353 8.00532)" />
			<polyline points="-4.69 1.407 4.69 1.407" fill="none" stroke="#000000" stroke-width="0.535999954" stroke-linecap="round" stroke-linejoin="round" transform="matrix(1 0 0 1 27.0353 8.00532)" />
			<path d="M 40.6707 9.69367 L 40.6707 10.9953 C 40.6707 11.0727, 40.6851 11.1444, 40.7136 11.2105, 40.7424 11.2771, 40.7897 11.3207, 40.8554 11.3416, 40.9572 11.3889, 41.1223 11.4149, 41.3512 11.4189, 41.58 11.4233, 41.8112 11.4253, 42.0445 11.4249 L 42.0445 11.9764 C 41.3708 11.9507, 40.7103 11.9379, 40.0631 11.9379, 39.4247 11.9379, 38.753 11.9507, 38.0485 11.9764 L 38.0485 11.4249 C 38.291 11.4253, 38.5246 11.4233, 38.749 11.4189, 38.9735 11.4149, 39.141 11.3889, 39.2508 11.3416, 39.3169 11.3207, 39.3654 11.2771, 39.3963 11.2105, 39.4271 11.1444, 39.4423 11.0727, 39.4423 10.9953 L 39.4423 9.69367, 35.6776 9.69367, 35.6776 9.17429, 40.0896 2.6147 C 40.1469 2.53816, 40.2194 2.49968, 40.3076 2.49928 L 40.4527 2.49928 C 40.5981 2.49968, 40.6707 2.57222, 40.6707 2.71729 L 40.6707 9.1294, 42.0905 9.1294, 42.0905 9.69367 Z M 39.5085 4.30109 L 36.2587 9.1294, 39.5085 9.1294 Z" stroke="none" fill="#000000" />
			<path d="M 48.9487 9.6039 C 48.9487 9.98903, 48.8674 10.3429, 48.7047 10.6655, 48.542 10.9885, 48.3216 11.2714, 48.0442 11.5151, 47.7669 11.7588, 47.4475 11.9467, 47.0864 12.079, 46.7258 12.2116, 46.3402 12.2778, 45.9307 12.2778, 45.5435 12.2778, 45.1712 12.2224, 44.8145 12.111, 44.4579 12, 44.1409 11.8401, 43.8635 11.6305, 43.5862 11.4213, 43.3618 11.1648, 43.1899 10.8611, 43.0184 10.5577, 42.9322 10.2199, 42.9322 9.84756, 42.9322 9.53176, 42.9875 9.24442, 43.0973 8.98553, 43.2075 8.72704, 43.3594 8.491, 43.553 8.27699, 43.7469 8.06339, 43.9701 7.86902, 44.2234 7.69349, 44.4767 7.51836, 44.7091 7.3813, 44.9203 7.28272 L 44.4511 6.98776 C 44.108 6.77456, 43.8315 6.49683, 43.6223 6.15459, 43.4131 5.81274, 43.3085 5.43843, 43.3085 5.03207, 43.3085 4.69062, 43.3814 4.37523, 43.5265 4.08668, 43.672 3.79814, 43.8647 3.54806, 44.1044 3.33646, 44.3445 3.12486, 44.6242 2.95815, 44.9432 2.83632, 45.2626 2.71449, 45.5916 2.65357, 45.9307 2.65317, 46.2653 2.65357, 46.5891 2.70287, 46.9017 2.80105, 47.2143 2.89964, 47.496 3.04071, 47.7469 3.22425, 47.9978 3.4082, 48.1961 3.63142, 48.3412 3.89432, 48.4867 4.15721, 48.5592 4.44897, 48.5592 4.76917, 48.5592 5.03046, 48.5099 5.26972, 48.4105 5.48773, 48.3115 5.70574, 48.1837 5.90692, 48.0274 6.09047, 47.8711 6.27441, 47.6852 6.43792, 47.4696 6.58099, 47.254 6.72446, 47.0644 6.83627, 46.9017 6.91723 L 47.6543 7.39813 C 48.0422 7.63779, 48.3548 7.94998, 48.5925 8.3347, 48.8301 8.71943, 48.9487 9.14263, 48.9487 9.6039 Z M 47.7866 4.76917 C 47.7866 4.54314, 47.7373 4.32834, 47.6379 4.12515, 47.5389 3.92237, 47.4046 3.74804, 47.2351 3.60257, 47.0656 3.45749, 46.8696 3.34207, 46.6472 3.25631, 46.4252 3.17095, 46.1863 3.12807, 45.9307 3.12767, 45.6886 3.12807, 45.4566 3.16133, 45.2341 3.22746, 45.0117 3.29398, 44.8157 3.38896, 44.6462 3.5128, 44.4767 3.63703, 44.3425 3.78451, 44.2435 3.95523, 44.1445 4.12636, 44.0948 4.3099, 44.0948 4.50627, 44.0948 4.72909, 44.1545 4.93228, 44.2731 5.11582, 44.3917 5.29977, 44.5504 5.45126, 44.7484 5.57068 L 46.4456 6.63509 C 46.8199 6.43472, 47.1373 6.17703, 47.397 5.86284, 47.6567 5.54864, 47.7866 5.18435, 47.7866 4.76917 Z M 48.0967 10.0848 C 48.0967 9.82031, 48.0242 9.57144, 47.8791 9.3382, 47.7341 9.10536, 47.5381 8.9162, 47.2912 8.77033 L 45.3692 7.57767 C 44.9248 7.79609, 44.5472 8.10387, 44.2367 8.50142, 43.9265 8.89897, 43.771 9.34782, 43.771 9.84756, 43.771 10.1089, 43.8295 10.3589, 43.9461 10.5982, 44.0631 10.8378, 44.2194 11.0438, 44.415 11.2169, 44.611 11.3901, 44.841 11.5259, 45.1051 11.6241, 45.3696 11.7227, 45.6445 11.7716, 45.9307 11.7712, 46.2216 11.7716, 46.4989 11.7291, 46.763 11.6434, 47.0271 11.558, 47.2592 11.4406, 47.4595 11.2907, 47.6599 11.1412, 47.8162 10.9649, 47.9284 10.7617, 48.0406 10.5589, 48.0967 10.3333, 48.0967 10.0848 Z" stroke="none" fill="#000000" />
			<path d="M 60.889 3.26939 C 60.6824 3.2698, 60.5005 3.28534, 60.343 3.3156, 60.186 3.34627, 60.04 3.39861, 59.9051 3.47222, 59.6806 3.60799, 59.5096 3.81287, 59.3927 4.08726 L 56.2725 12.1286 C 56.2144 12.2553, 56.1155 12.3163, 55.976 12.3118 L 55.868 12.3118 C 55.729 12.3118, 55.6305 12.2508, 55.5716 12.1286 L 52.3034 3.70777 C 52.2674 3.62516, 52.2269 3.55115, 52.1819 3.48572, 52.1369 3.42029, 52.0719 3.37244, 51.9864 3.34136, 51.8834 3.30251, 51.7382 3.28084, 51.5517 3.27634, 51.3653 3.27225, 51.1665 3.2698, 50.9555 3.26939 L 50.9555 2.72632 C 51.535 2.7574, 52.0899 2.77253, 52.6199 2.77212, 52.7008 2.77253, 52.7888 2.76803, 52.8828 2.75904, 53.4987 2.75945, 54.1432 2.75086, 54.8171 2.73287 L 54.8171 3.26939 C 54.6151 3.2698, 54.4351 3.2743, 54.2777 3.28289, 54.1207 3.29188, 53.9792 3.32419, 53.8532 3.38062, 53.7952 3.4117, 53.7502 3.453, 53.7183 3.50494, 53.6962 3.54011, 53.6847 3.57282, 53.6847 3.60308, 53.6847 3.62107, 53.6872 3.6407, 53.6913 3.66197 L 56.3334 10.4274, 58.8267 4.03492 C 58.8496 3.98298, 58.8606 3.9241, 58.8606 3.85826, 58.8606 3.73231, 58.8001 3.61453, 58.6787 3.50494, 58.5756 3.41374, 58.4599 3.35159, 58.3315 3.31887, 58.2035 3.28616, 58.0407 3.2698, 57.8428 3.26939 L 57.8428 2.73287 C 58.3867 2.75086, 58.8987 2.75945, 59.3796 2.75904, 59.4426 2.76803, 59.5096 2.77253, 59.5816 2.77212, 59.995 2.77253, 60.431 2.7574, 60.889 2.72632 L 60.889 3.26939 Z" stroke="none" fill="#000000" />
			<path d="M -45.7475 0.140238 C -45.7475 -0.722261, -45.2663 -1.38476, -44.31 -1.85976 L 34.4837 -1.85976 C 29.6087 -5.38476, 25.8337 -9.65351, 23.1587 -14.6598, 21.4462 -17.8535, 20.3087 -21.0223, 19.7587 -24.1598 L 19.6525 -24.8598 C 19.6525 -25.5848, 20.34 -25.9535, 21.715 -25.9598, 22.9525 -25.9535, 23.6775 -25.4848, 23.8775 -24.5598, 24.0837 -23.2223, 24.4587 -21.8535, 25.0087 -20.4598, 28.3775 -10.6535, 34.9712 -4.15351, 44.7837 -0.959761, 45.4087 -0.753511, 45.715 -0.384762, 45.715 0.140238, 45.715 0.677738, 45.4087 1.04649, 44.7837 1.24024, 34.9712 4.44649, 28.3775 10.9465, 25.0087 20.7402, 24.5337 22.0777, 24.1525 23.4152, 23.8775 24.7402, 23.6775 25.7402, 22.9525 26.2402, 21.715 26.2402, 20.2775 26.2402, 19.5525 25.8777, 19.5525 25.1402, 19.5525 24.9465, 19.7587 24.1152, 20.1712 22.6402, 22.3025 14.3152, 27.0712 7.47774, 34.4837 2.14024 L -44.31 2.14024 C -45.2663 1.67774, -45.7475 1.01524, -45.7475 0.140238 Z" stroke="none" fill="#000000" transform="matrix(0.134 0 0 0.134 70.4029 7.93832)" />
			<path d="M 89.7462 12.0173 C 89.0232 11.9912, 88.3198 11.9781, 87.6369 11.9781, 86.9629 11.9781, 86.2645 11.9912, 85.5411 12.0173 L 85.5411 11.4743 C 85.7881 11.4747, 86.0273 11.4714, 86.2588 11.4649, 86.4902 11.4583, 86.662 11.4354, 86.774 11.3958, 86.837 11.3745, 86.8844 11.332, 86.9159 11.2686, 86.9474 11.2056, 86.9629 11.1344, 86.9629 11.0555 L 86.9629 7.46343, 82.9869 7.46343, 82.9869 11.0555 C 82.9869 11.1344, 83.0016 11.2056, 83.0306 11.2686, 83.0601 11.332, 83.1083 11.3745, 83.1754 11.3958, 83.2923 11.4354, 83.4657 11.4583, 83.6947 11.4649, 83.9237 11.4714, 84.1617 11.4747, 84.4087 11.4743 L 84.4087 12.0173 C 83.6808 11.9912, 82.9779 11.9781, 82.2994 11.9781, 81.6255 11.9781, 80.9271 11.9912, 80.2032 12.0173 L 80.2032 11.4743 C 80.4506 11.4747, 80.6891 11.4714, 80.9181 11.4649, 81.1471 11.4583, 81.32 11.4354, 81.4366 11.3958, 81.4996 11.3745, 81.547 11.332, 81.5785 11.2686, 81.61 11.2056, 81.6255 11.1344, 81.6255 11.0555 L 81.6255 3.6816 C 81.6255 3.60349, 81.61 3.53274, 81.5785 3.46936, 81.547 3.40638, 81.4996 3.36345, 81.4366 3.34136, 81.32 3.30251, 81.1471 3.28084, 80.9181 3.27634, 80.6891 3.27225, 80.4506 3.2698, 80.2032 3.26939 L 80.2032 2.73287 C 80.9311 2.75086, 81.63 2.75945, 82.2994 2.75904, 82.9824 2.75945, 83.6857 2.75086, 84.4087 2.73287 L 84.4087 3.26939 C 84.1617 3.2698, 83.9225 3.27225, 83.6911 3.27634, 83.4596 3.28084, 83.2878 3.30251, 83.1754 3.34136, 83.1124 3.36345, 83.0654 3.40638, 83.0339 3.46936, 83.0028 3.53274, 82.9869 3.60349, 82.9869 3.6816 L 82.9869 6.91382, 86.9629 6.91382, 86.9629 3.6816 C 86.9629 3.60349, 86.9486 3.53274, 86.9192 3.46936, 86.8902 3.40638, 86.8419 3.36345, 86.774 3.34136, 86.6575 3.30251, 86.4845 3.28084, 86.2555 3.27634, 86.0265 3.27225, 85.7881 3.2698, 85.5411 3.26939 L 85.5411 2.73287 C 86.269 2.75086, 86.9674 2.75945, 87.6369 2.75904, 88.3198 2.75945, 89.0232 2.75086, 89.7462 2.73287 L 89.7462 3.26939 C 89.4992 3.2698, 89.2612 3.27225, 89.0322 3.27634, 88.8032 3.28084, 88.6298 3.30251, 88.5128 3.34136, 88.4502 3.36345, 88.4032 3.40638, 88.3717 3.46936, 88.3402 3.53274, 88.3243 3.60349, 88.3243 3.6816 L 88.3243 11.0555 C 88.3243 11.1344, 88.3402 11.2056, 88.3717 11.2686, 88.4032 11.332, 88.4502 11.3745, 88.5128 11.3958, 88.6298 11.4354, 88.8032 11.4583, 89.0322 11.4649, 89.2612 11.4714, 89.4992 11.4747, 89.7462 11.4743 L 89.7462 12.0173 Z" stroke="none" fill="#000000" />
			<path d="M 101.101 7.5341 L 100.864 7.70683 C 100.864 10.2043, 100.885 12.1619, 100.925 13.5798 L 99.9749 13.9828 C 100.014 12.601, 100.032 11.3954, 100.032 10.359, 100.032 9.32262, 100.014 8.15306, 99.9749 6.84316 L 100.864 7.24621 C 100.234 6.59845, 99.7014 5.79236, 99.2623 4.82793 L 98.1971 4.82793 C 97.8013 5.59803, 97.4054 6.25298, 97.0096 6.78558 L 98.136 7.24621, 97.6034 7.64925, 97.6034 9.26144 C 97.5638 11.453, 96.2971 13.0256, 93.8068 13.9828 L 93.688 13.8101 C 95.6277 12.8133, 96.6569 11.2983, 96.7721 9.26144 L 96.7721 7.13105 C 96.0595 7.94074, 95.1131 8.64967, 93.9256 9.26144 L 93.868 9.08871 C 95.3722 7.98033, 96.5382 6.55887, 97.3659 4.82793 L 95.3506 4.82793, 94.8144 4.94308, 94.3394 4.48246, 97.4846 4.48246 C 97.7221 3.71955, 97.902 2.93145, 98.0172 2.12175, 97.1895 2.24051, 96.2215 2.35567, 95.1131 2.46722 L 95.1131 2.23691 C 97.0132 1.93463, 98.4346 1.61795, 99.3847 1.29047, 100.335 0.966594, 100.946 0.685901, 101.22 0.451989 L 102.346 1.4884 C 101.717 1.49199, 100.569 1.66473, 98.9061 2.0066, 98.7477 2.97103, 98.5534 3.79512, 98.3159 4.48246 L 101.814 4.48246, 102.584 3.73394, 103.71 4.82793, 99.6186 4.82793 C 100.608 6.44371, 101.994 7.38296, 103.771 7.64925 L 103.771 7.87957 C 103.138 7.99832, 102.803 8.21064, 102.764 8.51293, 102.21 8.3258, 101.655 7.99832, 101.101 7.5341 Z M 93.0367 10.7585 C 93.0367 11.2983, 93.0583 12.2591, 93.0943 13.6374 L 92.1478 13.9828 C 92.1874 11.7229, 92.2054 9.39819, 92.2054 7.01589, 91.6152 8.47694, 90.8631 9.68608, 89.9527 10.6433 L 89.7727 10.5282 C 90.8415 8.91957, 91.6332 6.84676, 92.1478 4.30972 L 90.9603 4.30972, 90.3089 4.42488, 89.8339 3.96425, 92.2054 3.96425 C 92.2054 3.00702, 92.1874 1.85546, 92.1478 0.509567 L 93.5693 1.2005, 93.0367 1.60355, 93.0367 3.96425, 93.688 3.96425, 94.2818 3.38847, 95.2319 4.30972, 93.0367 4.30972, 93.0367 5.63402 C 93.7888 5.9435, 94.2638 6.2062, 94.4618 6.41492, 94.6597 6.62724, 94.7568 6.82877, 94.7568 7.01589, 94.7568 7.17423, 94.6993 7.35776, 94.5805 7.56649, 94.4618 7.7788, 94.3826 7.88316, 94.3394 7.87957, 94.2242 7.88316, 94.1055 7.72842, 93.9867 7.41894, 93.7888 6.92233, 93.4721 6.44371, 93.0367 5.97949 Z" stroke="none" fill="#000000" />
			<path d="M 112.374 4.54004 C 112.417 2.70113, 112.396 1.33725, 112.316 0.451989 L 113.738 1.08535, 113.205 1.54597 C 113.205 2.74072, 113.187 3.73754, 113.148 4.54004 L 115.638 4.54004, 116.171 3.96425, 117.059 4.71277, 116.588 5.05824 C 116.43 7.98033, 116.311 9.94878, 116.232 10.9636, 116.153 11.982, 115.965 12.6801, 115.667 13.0616, 115.372 13.4467, 114.925 13.7345, 114.332 13.9253, 114.296 13.3891, 113.544 12.8889, 112.079 12.4282 L 112.14 12.1403 C 113.486 12.3743, 114.324 12.4894, 114.659 12.4894, 114.997 12.4894, 115.224 12.0864, 115.343 11.2803, 115.462 10.4742, 115.598 8.34379, 115.757 4.8855 L 113.148 4.8855 C 113.029 6.46171, 112.802 7.76801, 112.464 8.80441, 112.129 9.84082, 111.568 10.7729, 110.776 11.597, 109.984 12.4246, 108.801 13.1983, 107.217 13.9253 L 107.037 13.7525 C 108.344 13.0256, 109.351 12.2699, 110.064 11.4818, 110.776 10.6973, 111.309 9.81203, 111.665 8.8332, 112.021 7.85438, 112.259 6.54087, 112.374 4.8855 L 110.773 4.8855, 110.064 5.00066, 109.589 4.54004 Z M 107.512 9.60691 C 108.621 9.34061, 109.592 9.07431, 110.42 8.80082 L 110.539 9.03113 C 108.797 9.65009, 107.404 10.1683, 106.357 10.5893, 105.31 11.014, 104.705 11.3379, 104.547 11.5646 L 103.716 10.4706 C 104.313 10.3986, 105.321 10.1683, 106.742 9.77964 L 106.742 3.3309, 105.853 3.3309 C 105.339 3.33449, 104.864 3.39207, 104.428 3.50363 L 103.896 2.98543, 108.819 2.98543, 109.47 2.35207, 110.477 3.3309, 107.512 3.3309 Z" stroke="none" fill="#000000" />
			<path d="M 118.666 3.96425 L 118.785 3.79152 C 119.497 4.02543, 119.994 4.23775, 120.271 4.42848, 120.548 4.6228, 120.685 4.83152, 120.685 5.05824, 120.685 5.17699, 120.638 5.34973, 120.538 5.58004, 120.437 5.81035, 120.347 5.92551, 120.268 5.92191, 120.188 5.92551, 120.091 5.79236, 119.973 5.51886, 119.735 5.10142, 119.3 4.58322, 118.666 3.96425 Z M 117.896 8.28261 C 118.411 8.17106, 119.559 7.61327, 121.336 6.61285 L 121.455 6.78558 C 120.865 7.21022, 120.3 7.64566, 119.767 8.08469, 119.235 8.52732, 118.868 8.91957, 118.666 9.26144 Z M 128.926 4.59761 C 128.296 5.06184, 127.566 5.56205, 126.734 6.09465 L 126.616 5.92191 C 127.486 5.11942, 128.138 4.31332, 128.573 3.50363 L 129.52 4.42488 Z M 126.853 6.78558 L 126.911 6.61285 C 128.296 6.96192, 129.106 7.24261, 129.343 7.45133, 129.581 7.66365, 129.7 7.90116, 129.7 8.16746, 129.7 8.36178, 129.671 8.54531, 129.61 8.71805, 129.552 8.89078, 129.48 8.97715, 129.401 8.97355, 129.286 8.97715, 129.127 8.78642, 128.926 8.39777, 128.573 7.86517, 127.882 7.32538, 126.853 6.78558 Z M 124.064 3.56121 C 123.039 4.48606, 122.366 5.06184, 122.049 5.28855, 122.841 5.29215, 123.708 5.27416, 124.658 5.23097, 125.133 4.73436, 125.489 4.23775, 125.727 3.73394 L 126.673 4.59761 C 126.356 4.67678, 125.727 5.159, 124.777 6.03707, 123.827 6.92233, 123.057 7.59527, 122.463 8.0523, 123.532 8.01631, 124.618 7.98033, 125.727 7.93714, 125.568 7.67085, 125.331 7.32538, 125.014 6.90074 L 125.133 6.78558 C 125.845 7.17423, 126.317 7.48012, 126.554 7.71043, 126.792 7.94074, 126.911 8.13147, 126.911 8.28261, 126.911 8.40137, 126.832 8.5741, 126.673 8.80441, 126.515 9.03473, 126.396 9.14988, 126.317 9.14629, 126.281 9.14988, 126.241 9.09231, 126.198 8.97355, 126.119 8.74684, 126.004 8.47694, 125.845 8.16746, 125.45 8.21064, 124.798 8.28621, 123.888 8.39777 L 124.895 8.97355, 124.478 9.26144, 124.478 10.2978, 129.225 10.2978, 129.995 9.54933, 131.064 10.6433, 124.478 10.6433 C 124.478 12.3347, 124.5 13.3711, 124.539 13.7525 L 123.65 14.0404 C 123.69 13.0436, 123.708 11.9136, 123.708 10.6433 L 119.26 10.6433 C 118.749 10.6469, 118.274 10.7045, 117.839 10.8161 L 117.302 10.2978, 123.708 10.2978, 123.708 8.45535 C 122.841 8.5741, 122.207 8.76483, 121.811 9.03113 L 121.218 8.0523 C 121.732 8.0559, 122.304 7.75002, 122.938 7.13465, 123.571 6.52288, 124.086 5.98309, 124.478 5.51886, 123.017 5.6772, 122.089 5.88592, 121.693 6.15222 L 121.218 5.23097 C 121.534 5.27416, 121.952 4.96827, 122.463 4.31332, 122.977 3.66197, 123.312 3.16176, 123.47 2.81269 L 120.03 2.81269 C 119.519 2.81629, 119.044 2.87387, 118.609 2.98543 L 118.076 2.46722, 123.945 2.46722 C 123.866 1.81947, 123.532 1.18611, 122.938 0.567145 L 123.057 0.451989 C 123.848 0.761472, 124.334 1.02417, 124.51 1.23289, 124.69 1.44521, 124.777 1.60715, 124.777 1.71871, 124.777 1.95262, 124.618 2.20092, 124.302 2.46722 L 128.512 2.46722, 129.282 1.77629, 130.293 2.81269, 123.827 2.81269, 124.597 3.44605 Z" stroke="none" fill="#000000" />
			<path d="M 136.82 2.81269 L 136.82 7.41894, 138.957 7.41894, 138.957 2.81269 Z M 131.188 2.46722 L 137.651 2.46722 C 137.572 1.89504, 137.219 1.26168, 136.586 0.567145 L 136.701 0.394411 C 137.413 0.703894, 137.91 0.973791, 138.187 1.2041, 138.464 1.43442, 138.601 1.60715, 138.601 1.71871, 138.601 1.95262, 138.443 2.20092, 138.126 2.46722 L 142.455 2.46722, 143.405 1.54597, 144.708 2.81269, 139.785 2.81269, 139.785 7.41894, 140.796 7.41894, 141.386 6.78558, 142.397 7.70683, 141.742 7.99472 C 140.915 8.99514, 139.886 10.0136, 138.658 11.0464, 140.202 12.126, 142.257 12.7557, 144.826 12.9464 L 144.826 13.1768 C 144.236 13.2559, 143.84 13.4862, 143.643 13.8677, 141.35 13.3711, 139.511 12.583, 138.126 11.507, 136.309 12.6586, 133.977 13.4646, 131.127 13.9253 L 131.069 13.695 C 133.797 13.0832, 135.974 12.1835, 137.593 10.9888, 136.722 10.1107, 135.952 9.03473, 135.279 7.76441 L 134.211 7.76441, 133.559 7.87957, 133.084 7.41894, 135.992 7.41894, 135.992 2.81269, 133.145 2.81269 C 132.631 2.81629, 132.156 2.87387, 131.72 2.98543 Z M 135.693 7.76441 C 136.406 8.87999, 137.219 9.82283, 138.126 10.5857, 138.918 9.8984, 139.81 8.95916, 140.796 7.76441 Z M 134.272 3.67636 L 135.337 4.59761, 134.747 4.82793 C 133.602 6.02267, 132.375 7.09506, 131.069 8.0523 L 130.889 7.87957 C 131.602 7.2678, 132.267 6.56966, 132.879 5.78156, 133.491 4.99706, 133.955 4.29533, 134.272 3.67636 Z M 140.616 4.02183 C 142.714 5.02225, 143.873 5.65921, 144.089 5.92551, 144.305 6.19541, 144.413 6.42572, 144.413 6.61285, 144.413 6.77119, 144.373 6.92593, 144.294 7.07707, 144.215 7.23181, 144.136 7.30738, 144.056 7.30379, 143.898 7.30738, 143.661 7.09506, 143.344 6.67043, 142.869 6.05866, 141.901 5.23457, 140.44 4.19457 Z" stroke="none" fill="#000000" />
			<path d="M 153.728 5.40371 C 153.692 6.67402, 153.613 7.80759, 153.49 8.80082 L 155.865 8.80082, 155.865 5.40371 Z M 153.314 1.14293 L 152.781 1.37324, 152.126 2.35207, 154.322 2.35207, 154.854 1.83386, 155.865 2.75511 C 155.311 2.75871, 154.541 3.52522, 153.551 5.05824 L 155.804 5.05824, 156.279 4.54004, 157.168 5.28855, 156.635 5.63402, 156.635 8.80082, 156.873 8.80082, 157.524 8.16746, 158.532 9.14629, 153.965 9.14629 C 154.678 10.4562, 155.401 11.3594, 156.132 11.8561, 156.866 12.3563, 157.607 12.6586, 158.356 12.7737 L 158.356 13.004 C 157.722 13.0436, 157.348 13.2559, 157.229 13.6374, 155.57 12.7557, 154.383 11.2623, 153.67 9.14629 L 153.433 9.14629 C 152.842 11.4134, 151.14 13.0256, 148.333 13.9828 L 148.272 13.7525 C 150.529 12.8313, 151.993 11.2983, 152.663 9.14629 L 150.467 9.14629 C 149.956 9.14988, 149.481 9.20746, 149.042 9.31902 L 148.51 8.80082, 150.406 8.80082, 150.406 4.65519 C 150.014 5.11942, 149.561 5.56205, 149.042 5.97949 L 148.866 5.86433 C 149.658 4.98627, 150.341 4.03623, 150.914 3.01781, 151.489 2.003, 151.892 1.14653, 152.126 0.451989 Z M 151.95 2.69754 C 151.518 3.3165, 151.022 3.94986, 150.467 4.59761 L 151.18 5.05824, 153.138 5.05824, 154.383 2.69754 Z M 151.18 5.40371 L 151.18 8.80082, 152.72 8.80082 C 152.842 7.72842, 152.922 6.59845, 152.958 5.40371 Z M 148.035 6.95832 L 149.816 6.2098, 149.935 6.38254, 148.035 7.5341, 148.035 12.2555 C 148.035 12.986, 147.642 13.5042, 146.851 13.8101, 146.89 13.3495, 146.336 12.9464, 145.188 12.601 L 145.188 12.3707 C 146.059 12.529, 146.624 12.5938, 146.88 12.5722, 147.139 12.5542, 147.265 12.3167, 147.265 11.8525 L 147.265 7.93714 C 146.199 8.51652, 145.606 8.91957, 145.487 9.14629 L 144.713 8.0523 C 145.152 8.01631, 146.001 7.75002, 147.265 7.24621 L 147.265 4.02183, 145.782 4.02183, 145.249 4.13699, 144.774 3.67636, 147.265 3.67636 C 147.265 2.33767, 147.247 1.26168, 147.207 0.451989 L 148.571 1.2005, 148.035 1.54597, 148.035 3.67636, 148.571 3.67636, 149.161 3.10058, 150.111 4.02183, 148.035 4.02183 Z" stroke="none" fill="#000000" />
			<path d="M 161.208 1.89144 L 161.208 4.13699, 163.579 4.13699, 163.579 1.89144 Z M 160.376 5.46129 C 160.419 4.69838, 160.437 3.93906, 160.437 3.19055, 160.437 2.44203, 160.419 1.72231, 160.376 1.02777 L 161.208 1.54597, 163.521 1.54597, 163.935 1.02777, 164.885 1.77629, 164.349 2.12175 C 164.349 3.50723, 164.371 4.41048, 164.41 4.82793 L 163.579 5.1734, 163.579 4.48246, 161.208 4.48246, 161.208 5.05824 Z M 170.161 9.77964 C 170.161 11.3954, 170.183 12.4894, 170.222 13.0616 L 169.333 13.4071, 169.333 12.4858, 166.663 12.4858, 166.663 13.3495, 165.832 13.6374 C 165.875 12.8313, 165.893 12.0396, 165.893 11.2515, 165.893 10.467, 165.875 9.70767, 165.832 8.97355 L 166.663 9.3766, 169.153 9.3766, 169.272 9.26144 C 167.93 8.53452, 166.922 7.69244, 166.249 6.728 L 164.468 6.728 C 163.442 7.92275, 162.316 8.80441, 161.089 9.3766 L 163.579 9.3766, 163.996 8.85839, 164.885 9.54933, 164.468 9.8948 C 164.468 11.5106, 164.489 12.565, 164.529 13.0616 L 163.698 13.3495, 163.698 12.4858, 161.384 12.4858, 161.384 13.2343, 160.556 13.5222 C 160.596 12.8709, 160.614 12.1835, 160.614 11.453, 160.614 10.7261, 160.614 10.1107, 160.614 9.60691, 159.826 9.88041, 159.074 10.0891, 158.361 10.2403 L 158.3 10.0675 C 159.408 9.68608, 160.38 9.23625, 161.208 8.71805, 162.039 8.19984, 162.809 7.5377, 163.521 6.728 L 160.675 6.728 C 160.16 6.7316, 159.685 6.78918, 159.25 6.90074 L 158.717 6.38254, 163.698 6.38254 C 164.054 5.84994, 164.371 5.29215, 164.648 4.71277 L 165.774 5.46129 C 165.378 5.61963, 165.004 5.92551, 164.648 6.38254 L 168.383 6.38254 C 168.189 5.84994, 167.793 5.38931, 167.196 5.00066 L 167.314 4.82793 C 168.07 5.02225, 168.545 5.19859, 168.739 5.34973, 168.937 5.50447, 169.035 5.63762, 169.035 5.74918, 169.035 5.9435, 168.937 6.15582, 168.739 6.38254 L 169.927 6.38254, 170.755 5.57644, 171.942 6.728, 166.605 6.728 C 167.278 7.34697, 168.059 7.86517, 168.948 8.28621, 169.837 8.71085, 170.935 8.93756, 172.237 8.97355 L 172.237 9.20386 C 171.608 9.28303, 171.233 9.55293, 171.111 10.01 L 170.222 9.72207 Z M 161.384 9.72207 L 161.384 12.1403, 163.698 12.1403, 163.698 9.72207 Z M 166.663 9.72207 L 166.663 12.1403, 169.333 12.1403, 169.333 9.72207 Z M 167.019 1.89144 L 167.019 4.13699, 169.333 4.13699, 169.333 1.89144 Z M 166.188 5.1734 C 166.231 4.48606, 166.249 3.78792, 166.249 3.07539, 166.249 2.36646, 166.231 1.68272, 166.188 1.02777 L 167.019 1.54597, 169.272 1.54597, 169.69 1.02777, 170.578 1.71871, 170.103 2.12175 C 170.103 3.39207, 170.125 4.27374, 170.161 4.77035 L 169.333 5.05824, 169.333 4.48246, 167.019 4.48246, 167.019 4.8855 Z" stroke="none" fill="#000000" />
			<path d="M -45.7475 0.140238 C -45.7475 -0.722261, -45.2663 -1.38476, -44.31 -1.85976 L 34.4837 -1.85976 C 29.6087 -5.38476, 25.8337 -9.65351, 23.1587 -14.6598, 21.4462 -17.8535, 20.3087 -21.0223, 19.7587 -24.1598 L 19.6525 -24.8598 C 19.6525 -25.5848, 20.34 -25.9535, 21.715 -25.9598, 22.9525 -25.9535, 23.6775 -25.4848, 23.8775 -24.5598, 24.0837 -23.2223, 24.4587 -21.8535, 25.0087 -20.4598, 28.3775 -10.6535, 34.9712 -4.15351, 44.7837 -0.959761, 45.4087 -0.753511, 45.715 -0.384762, 45.715 0.140238, 45.715 0.677738, 45.4087 1.04649, 44.7837 1.24024, 34.9712 4.44649, 28.3775 10.9465, 25.0087 20.7402, 24.5337 22.0777, 24.1525 23.4152, 23.8775 24.7402, 23.6775 25.7402, 22.9525 26.2402, 21.715 26.2402, 20.2775 26.2402, 19.5525 25.8777, 19.5525 25.1402, 19.5525 24.9465, 19.7587 24.1152, 20.1712 22.6402, 22.3025 14.3152, 27.0712 7.47774, 34.4837 2.14024 L -44.31 2.14024 C -45.2663 1.67774, -45.7475 1.01524, -45.7475 0.140238 Z" stroke="none" fill="#000000" transform="matrix(0.134 0 0 0.134 181.488 7.93832)" />
			<path d="M 199.538 5.29117 C 199.538 5.6449, 199.449 5.97532, 199.269 6.28284, 199.089 6.59036, 198.853 6.8488, 198.561 7.05777, 198.233 7.31131, 197.867 7.49778, 197.463 7.6176, 197.059 7.73783, 196.647 7.79753, 196.229 7.79712 L 194.059 7.79712, 194.059 11.0555 C 194.059 11.1344, 194.077 11.2056, 194.11 11.2686, 194.144 11.332, 194.194 11.3745, 194.261 11.3958, 194.378 11.4354, 194.549 11.4583, 194.774 11.4649, 194.999 11.4714, 195.234 11.4747, 195.481 11.4743 L 195.481 12.0173 C 194.762 11.9912, 194.064 11.9781, 193.385 11.9781, 192.712 11.9781, 192.013 11.9912, 191.289 12.0173 L 191.289 11.4743 C 191.537 11.4747, 191.773 11.4714, 191.997 11.4649, 192.222 11.4583, 192.393 11.4354, 192.509 11.3958, 192.572 11.3745, 192.622 11.3307, 192.658 11.2653, 192.694 11.1999, 192.712 11.1299, 192.712 11.0555 L 192.712 3.6816 C 192.712 3.60799, 192.694 3.53806, 192.658 3.47263, 192.622 3.4072, 192.572 3.36345, 192.509 3.34136, 192.393 3.30251, 192.222 3.28084, 191.997 3.27634, 191.773 3.27225, 191.537 3.2698, 191.289 3.26939 L 191.289 2.73287, 196.229 2.73287 C 196.647 2.73328, 197.059 2.79216, 197.463 2.90994, 197.867 3.02771, 198.233 3.21541, 198.561 3.47222, 198.853 3.69959, 199.089 3.96908, 199.269 4.28069, 199.449 4.59271, 199.538 4.92967, 199.538 5.29117 Z M 197.981 5.29117 C 197.981 5.02127, 197.959 4.75424, 197.914 4.49006, 197.869 4.2263, 197.746 4.00057, 197.544 3.81246, 197.333 3.60799, 197.08 3.46609, 196.785 3.38757, 196.491 3.30906, 196.184 3.2698, 195.865 3.26939 L 194.666 3.26939 C 194.563 3.2698, 194.457 3.27225, 194.349 3.27634, 194.241 3.28084, 194.163 3.30047, 194.113 3.33482, 194.073 3.3659, 194.049 3.41497, 194.043 3.48245, 194.036 3.55033, 194.032 3.61658, 194.032 3.6816 L 194.032 7.3064, 195.865 7.3064 C 196.184 7.30681, 196.491 7.26755, 196.785 7.18904, 197.08 7.11052, 197.333 6.96862, 197.544 6.76334, 197.737 6.57604, 197.858 6.35276, 197.907 6.09309, 197.957 5.83383, 197.981 5.56638, 197.981 5.29117 Z" stroke="none" fill="#000000" />
			<path d="M 211.809 12.0173 C 211.1 11.9912, 210.419 11.9781, 209.767 11.9781, 209.116 11.9781, 208.435 11.9912, 207.726 12.0173 L 207.726 11.4743 C 207.973 11.4747, 208.212 11.4714, 208.443 11.4649, 208.675 11.4583, 208.846 11.4354, 208.958 11.3958, 209.021 11.3745, 209.069 11.332, 209.1 11.2686, 209.132 11.2056, 209.147 11.1344, 209.147 11.0555 L 209.147 3.53111, 205.838 11.8276 C 205.771 11.9544, 205.683 12.0173, 205.575 12.0173, 205.441 12.0173, 205.346 11.9544, 205.292 11.8276 L 202.024 3.6358, 202.024 10.6891 C 202.024 10.8073, 202.052 10.9165, 202.108 11.0167, 202.165 11.1173, 202.245 11.2019, 202.348 11.2714, 202.501 11.3635, 202.665 11.4203, 202.843 11.442, 203.02 11.464, 203.221 11.4747, 203.446 11.4743 L 203.446 12.0239 C 202.858 11.9936, 202.296 11.9781, 201.761 11.9781, 201.218 11.9781, 200.663 11.9936, 200.096 12.0239 L 200.096 11.4743 C 200.321 11.4747, 200.523 11.4628, 200.703 11.4387, 200.883 11.415, 201.047 11.359, 201.195 11.2714, 201.402 11.141, 201.505 10.9467, 201.505 10.6891 L 201.505 3.6816 C 201.505 3.60349, 201.49 3.53274, 201.458 3.46936, 201.427 3.40638, 201.379 3.36345, 201.316 3.34136, 201.2 3.30251, 201.027 3.28084, 200.798 3.27634, 200.569 3.27225, 200.335 3.2698, 200.096 3.26939 L 200.096 2.73287, 202.678 2.73287 C 202.835 2.73328, 202.93 2.79871, 202.961 2.92916 L 205.946 10.4143, 208.938 2.92261 C 208.992 2.79666, 209.089 2.73328, 209.228 2.73287 L 211.809 2.73287, 211.809 3.26939 C 211.562 3.2698, 211.327 3.27225, 211.102 3.27634, 210.877 3.28084, 210.707 3.30251, 210.59 3.34136, 210.527 3.36345, 210.477 3.4072, 210.441 3.47263, 210.405 3.53806, 210.387 3.60799, 210.387 3.6816 L 210.387 11.0555 C 210.387 11.1299, 210.405 11.1999, 210.441 11.2653, 210.477 11.3307, 210.527 11.3745, 210.59 11.3958, 210.707 11.4354, 210.877 11.4583, 211.102 11.4649, 211.327 11.4714, 211.562 11.4747, 211.809 11.4743 L 211.809 12.0173 Z" stroke="none" fill="#000000" />
			<path d="M 221.978 7.46343 C 221.978 8.0613, 221.876 8.63626, 221.672 9.18791, 221.467 9.73998, 221.154 10.2381, 220.732 10.6826, 220.341 11.0972, 219.885 11.4236, 219.364 11.6612, 218.843 11.8992, 218.292 12.0173, 217.712 12.0173 L 212.584 12.0173, 212.584 11.4743 C 212.831 11.4747, 213.067 11.4714, 213.291 11.4649, 213.516 11.4583, 213.687 11.4354, 213.803 11.3958, 213.866 11.3745, 213.916 11.3307, 213.952 11.2653, 213.988 11.1999, 214.006 11.1299, 214.006 11.0555 L 214.006 3.6816 C 214.006 3.60799, 213.988 3.53806, 213.952 3.47263, 213.916 3.4072, 213.866 3.36345, 213.803 3.34136, 213.687 3.30251, 213.516 3.28084, 213.291 3.27634, 213.067 3.27225, 212.831 3.2698, 212.584 3.26939 L 212.584 2.73287, 217.712 2.73287 C 218.301 2.73328, 218.854 2.85677, 219.37 3.10295, 219.887 3.34954, 220.343 3.68855, 220.738 4.11998, 221.156 4.58289, 221.467 5.10183, 221.672 5.67761, 221.876 6.25339, 221.978 6.8488, 221.978 7.46343 Z M 220.462 7.46343 C 220.462 6.93182, 220.418 6.40306, 220.33 5.87717, 220.243 5.35169, 220.042 4.87487, 219.727 4.44712, 219.449 4.07254, 219.104 3.7826, 218.693 3.57732, 218.282 3.37244, 217.836 3.2698, 217.355 3.26939 L 215.96 3.26939 C 215.857 3.2698, 215.752 3.27225, 215.644 3.27634, 215.536 3.28084, 215.457 3.30047, 215.407 3.33482, 215.367 3.3659, 215.344 3.41497, 215.337 3.48245, 215.33 3.55033, 215.327 3.61658, 215.327 3.6816 L 215.327 11.0555 C 215.327 11.1299, 215.33 11.1991, 215.337 11.262, 215.344 11.3254, 215.367 11.372, 215.407 11.4023, 215.457 11.4375, 215.537 11.4583, 215.647 11.4649, 215.757 11.4714, 215.861 11.4747, 215.96 11.4743 L 217.355 11.4743 C 217.822 11.4747, 218.264 11.3798, 218.68 11.1901, 219.095 11.0003, 219.444 10.7222, 219.727 10.3554, 220.046 9.94567, 220.249 9.49012, 220.334 8.98835, 220.419 8.487, 220.462 7.97869, 220.462 7.46343 Z" stroke="none" fill="#000000" />
			<path d="M 231.417 8.71968 C 231.417 9.21286, 231.32 9.67864, 231.127 10.117, 230.934 10.5554, 230.674 10.9349, 230.349 11.2555, 230.023 11.5761, 229.638 11.8325, 229.193 12.0239, 228.748 12.2161, 228.272 12.3118, 227.764 12.3118, 227.113 12.3118, 226.487 12.1866, 225.887 11.936, 225.288 11.6853, 224.761 11.3307, 224.307 10.8723, 223.84 10.3885, 223.485 9.84671, 223.242 9.2468, 223 8.6473, 222.878 8.02204, 222.878 7.37183, 222.878 6.72244, 223 6.09636, 223.242 5.49441, 223.485 4.89246, 223.84 4.35389, 224.307 3.87789, 224.761 3.42029, 225.288 3.0637, 225.887 2.80852, 226.487 2.55334, 227.113 2.42576, 227.764 2.42535, 228.29 2.42576, 228.768 2.5329, 229.199 2.74636, 229.631 2.96023, 229.988 3.2285, 230.271 3.55074 L 230.999 2.52349 C 231.026 2.45847, 231.084 2.42576, 231.174 2.42535 L 231.215 2.42535 C 231.35 2.42576, 231.417 2.49323, 231.417 2.62818 L 231.417 6.20064 C 231.417 6.33191, 231.35 6.39938, 231.215 6.40347 L 231.06 6.40347 C 230.952 6.40388, 230.884 6.34295, 230.857 6.22027, 230.839 5.78025, 230.751 5.36273, 230.591 4.9677, 230.432 4.57308, 230.219 4.22957, 229.954 3.93718, 229.689 3.6452, 229.383 3.4117, 229.035 3.23708, 228.686 3.06288, 228.308 2.97537, 227.899 2.97496, 227.382 2.97537, 226.902 3.08455, 226.457 3.30251, 226.012 3.52089, 225.632 3.82595, 225.318 4.21812, 224.972 4.65486, 224.736 5.14436, 224.61 5.68743, 224.484 6.23049, 224.421 6.79196, 224.421 7.37183, 224.421 7.94802, 224.484 8.50745, 224.61 9.05051, 224.736 9.59358, 224.972 10.0831, 225.318 10.519, 225.637 10.912, 226.021 11.2207, 226.47 11.4452, 226.92 11.6702, 227.4 11.7822, 227.912 11.7818, 228.335 11.7822, 228.732 11.7016, 229.102 11.5401, 229.473 11.379, 229.793 11.1573, 230.062 10.876, 230.332 10.5947, 230.545 10.2708, 230.702 9.90437, 230.86 9.53796, 230.938 9.14334, 230.938 8.71968, 230.938 8.58923, 231.004 8.5238, 231.134 8.52339 L 231.215 8.52339 C 231.35 8.5238, 231.417 8.58923, 231.417 8.71968 Z" stroke="none" fill="#000000" />
			<path d="M 238.008 3.56121 C 238.008 2.45283, 237.99 1.43442, 237.947 0.509567 L 239.311 1.14293, 238.84 1.54597, 238.84 3.56121, 242.456 3.56121, 243.05 2.98543, 243.878 3.79152, 243.345 4.19457 C 243.345 7.2678, 243.367 9.18947, 243.406 9.95238 L 242.514 10.3554, 242.514 9.66449, 238.84 9.66449, 238.84 12.2555 C 238.84 12.6801, 239.077 12.8889, 239.548 12.8889 L 243.64 12.8889 C 244 12.8529, 244.198 12.6514, 244.238 12.2879, 244.277 11.9244, 244.317 11.1831, 244.353 10.0675 L 244.651 10.0675 C 244.651 11.032, 244.723 11.6653, 244.86 11.9712, 244.997 12.2807, 245.206 12.529, 245.479 12.7161, 245.321 13.0256, 245.126 13.2451, 244.889 13.3783, 244.651 13.515, 244.317 13.5798, 243.878 13.5798 L 239.253 13.5798 C 238.426 13.5798, 238.008 13.1983, 238.008 12.4282 L 238.008 9.66449, 234.449 9.66449, 234.449 10.4706, 233.56 10.8736 C 233.6 9.57092, 233.618 8.22863, 233.618 6.84676, 233.618 5.46488, 233.6 4.19816, 233.56 3.043 L 234.51 3.56121 Z M 234.449 3.90668 L 234.449 6.38254, 238.008 6.38254, 238.008 3.90668 Z M 238.84 3.90668 L 238.84 6.38254, 242.514 6.38254, 242.514 3.90668 Z M 234.449 6.728 L 234.449 9.31902, 238.008 9.31902, 238.008 6.728 Z M 238.84 6.728 L 238.84 9.31902, 242.514 9.31902, 242.514 6.728 Z" stroke="none" fill="#000000" />
			<path d="M 252.959 2.35207 L 252.959 7.36136 C 252.959 10.2043, 251.854 12.3743, 249.637 13.8677 L 249.461 13.695 C 251.239 12.126, 252.128 10.0136, 252.128 7.36136 L 252.128 4.59761 C 252.128 3.56481, 252.11 2.51041, 252.07 1.43082 L 252.959 2.0066, 255.687 2.0066, 256.219 1.43082, 257.169 2.23691, 256.575 2.58238, 256.575 11.9676 C 256.575 12.3563, 256.773 12.5434, 257.169 12.5434 L 257.882 12.5434 C 258.08 12.5434, 258.216 12.3958, 258.296 12.0864, 258.375 11.7805, 258.436 11.0895, 258.476 10.01 L 258.771 10.01 C 258.771 10.8592, 258.81 11.4242, 258.889 11.7121, 258.969 12, 259.166 12.2195, 259.483 12.3707, 259.246 12.8313, 259.001 13.0904, 258.742 13.148, 258.486 13.2055, 258.238 13.2343, 258.001 13.2343 L 256.755 13.2343 C 256.082 13.2343, 255.744 12.9284, 255.744 12.3131 L 255.744 2.35207 Z M 248.986 6.32496 C 248.986 10.3986, 249.008 12.8529, 249.044 13.695 L 248.097 14.098 C 248.137 12.4138, 248.155 10.0711, 248.155 7.07347, 247.564 8.68926, 246.694 10.1107, 245.546 11.3343 L 245.427 11.1615 C 246.614 9.3622, 247.503 7.13465, 248.097 4.48246 L 246.672 4.48246, 246.139 4.59761, 245.664 4.13699, 248.155 4.13699 C 248.155 2.7983, 248.137 1.54957, 248.097 0.394411 L 249.4 0.912614, 248.986 1.31566, 248.986 4.13699, 249.814 4.13699, 250.469 3.50363, 251.476 4.48246, 248.986 4.48246, 248.986 6.03707 C 249.936 6.38613, 250.559 6.65603, 250.854 6.84676, 251.149 7.04109, 251.296 7.28939, 251.296 7.59168, 251.296 7.786, 251.267 7.98033, 251.21 8.17106, 251.152 8.36538, 251.102 8.45895, 251.062 8.45535, 250.944 8.45895, 250.764 8.26822, 250.526 7.87957, 250.173 7.34697, 249.659 6.82877, 248.986 6.32496 Z" stroke="none" fill="#000000" />
			<path d="M -45.7475 0.140238 C -45.7475 -0.722261, -45.2663 -1.38476, -44.31 -1.85976 L 34.4837 -1.85976 C 29.6087 -5.38476, 25.8337 -9.65351, 23.1587 -14.6598, 21.4462 -17.8535, 20.3087 -21.0223, 19.7587 -24.1598 L 19.6525 -24.8598 C 19.6525 -25.5848, 20.34 -25.9535, 21.715 -25.9598, 22.9525 -25.9535, 23.6775 -25.4848, 23.8775 -24.5598, 24.0837 -23.2223, 24.4587 -21.8535, 25.0087 -20.4598, 28.3775 -10.6535, 34.9712 -4.15351, 44.7837 -0.959761, 45.4087 -0.753511, 45.715 -0.384762, 45.715 0.140238, 45.715 0.677738, 45.4087 1.04649, 44.7837 1.24024, 34.9712 4.44649, 28.3775 10.9465, 25.0087 20.7402, 24.5337 22.0777, 24.1525 23.4152, 23.8775 24.7402, 23.6775 25.7402, 22.9525 26.2402, 21.715 26.2402, 20.2775 26.2402, 19.5525 25.8777, 19.5525 25.1402, 19.5525 24.9465, 19.7587 24.1152, 20.1712 22.6402, 22.3025 14.3152, 27.0712 7.47774, 34.4837 2.14024 L -44.31 2.14024 C -45.2663 1.67774, -45.7475 1.01524, -45.7475 0.140238 Z" stroke="none" fill="#000000" transform="matrix(0.134 0 0 0.134 268.672 7.93832)" />
			<path d="M 284.305 2.06418 L 289.347 2.06418, 290.174 1.31566, 291.186 2.40965, 286.263 2.40965 C 285.748 2.41324, 285.273 2.47082, 284.838 2.58238 Z M 284.838 12.3131 C 285.906 12.3923, 286.619 12.4318, 286.975 12.4318, 287.331 12.4318, 287.508 12.2015, 287.508 11.7373 L 287.508 5.86433, 285.255 5.86433 C 284.74 5.86793, 284.265 5.92551, 283.83 6.03707 L 283.297 5.51886, 290.117 5.51886, 291.006 4.71277, 292.013 5.86433, 288.339 5.86433, 288.339 12.0252 C 288.379 13.0616, 287.886 13.677, 286.856 13.8677, 286.856 13.3315, 286.184 12.9105, 284.838 12.601 Z M 281.934 0.624723 L 282.999 1.43082 C 282.725 1.50999, 282.25 1.91303, 281.577 2.63996, 280.908 3.41006, 280.055 4.15858, 279.026 4.8855 L 278.907 4.71277 C 279.58 4.101, 280.203 3.40287, 280.775 2.61477, 281.351 1.83027, 281.736 1.16452, 281.934 0.624723 Z M 282.052 7.18863 L 282.052 13.4646, 281.16 13.9828 C 281.203 13.1408, 281.221 10.8017, 281.221 6.95832, 280.314 7.88316, 279.422 8.63168, 278.551 9.20386 L 278.432 9.03113 C 279.263 8.22863, 280.066 7.32898, 280.836 6.32856, 281.606 5.33173, 282.189 4.3709, 282.585 3.44605 L 283.592 4.30972, 283.06 4.59761 C 282.549 5.33173, 282.113 5.90752, 281.754 6.32496 L 282.409 6.84316 Z" stroke="none" fill="#000000" />
			<path d="M 299.649 6.55527 L 299.113 6.95832, 299.113 7.93714, 302.14 7.93714, 303.028 7.07347, 304.274 8.28261, 299.113 8.28261, 299.113 10.2978, 301.427 10.2978, 302.258 9.49175, 303.442 10.6433, 299.113 10.6433, 299.113 12.8313, 303.147 12.8313, 304.097 11.91, 305.4 13.1768, 293.838 13.1768 C 293.323 13.1768, 292.848 13.2343, 292.413 13.3495 L 291.88 12.8313, 298.285 12.8313, 298.285 10.6433, 295.259 10.6433, 294.726 10.7585, 294.251 10.2978, 298.285 10.2978, 298.285 8.28261, 294.903 8.28261 C 294.233 9.3622, 293.402 10.2835, 292.413 11.0464 L 292.236 10.9312 C 293.028 10.0136, 293.618 9.14269, 294.014 8.315, 294.41 7.49091, 294.669 6.80717, 294.784 6.26738 L 295.972 7.01589 C 295.698 7.09506, 295.399 7.40455, 295.083 7.93714 L 298.285 7.93714 C 298.285 7.17423, 298.267 6.50129, 298.224 5.92191 Z M 295.259 3.61879 L 295.259 5.28855, 302.197 5.28855, 302.197 3.61879 Z M 294.37 0.73988 L 295.32 1.31566, 302.14 1.31566, 302.672 0.73988, 303.561 1.4884, 303.028 1.89144 C 303.028 3.69796, 303.05 5.04384, 303.09 5.92191 L 302.197 6.32496, 302.197 5.63402, 295.259 5.63402, 295.259 5.92191, 294.37 6.26738 C 294.413 5.58004, 294.431 4.68038, 294.431 3.56481, 294.431 2.45283, 294.413 1.50999, 294.37 0.73988 Z M 295.259 1.66113 L 295.259 3.27332, 302.197 3.27332, 302.197 1.66113 Z" stroke="none" fill="#000000" />
			<path d="M 305.823 1.66113 L 305.942 1.54597 C 307.208 2.20092, 307.87 2.70113, 307.928 3.0466, 307.989 3.39207, 307.939 3.65117, 307.781 3.82391, 307.622 3.99664, 307.503 4.08301, 307.424 4.07941, 307.305 4.08301, 307.187 3.89228, 307.068 3.50363, 306.87 3.00702, 306.456 2.39525, 305.823 1.66113 Z M 305.467 8.0523 C 305.981 8.17106, 306.327 8.22863, 306.503 8.22863, 306.683 8.22863, 306.881 8.02711, 307.097 7.62406, 307.316 7.22102, 307.881 5.79236, 308.788 3.3309 L 309.026 3.44605 C 308.04 6.55887, 307.496 8.27901, 307.395 8.60289, 307.295 8.93037, 307.244 9.29383, 307.244 9.69688, 307.244 10.0999, 307.284 10.6073, 307.363 11.2191, 307.406 11.874, 307.288 12.1943, 307.01 12.1727, 306.733 12.1547, 306.535 12.0684, 306.417 11.9136, 306.298 11.7625, 306.237 11.5862, 306.237 11.3918, 306.237 11.2047, 306.258 11.032, 306.298 10.8736, 306.417 10.4562, 306.485 9.99556, 306.507 9.49535, 306.528 8.99874, 306.161 8.5921, 305.405 8.28261 Z M 318.278 12.5434 L 318.868 10.3554, 319.105 10.413 C 319.026 10.9924, 318.979 11.5394, 318.958 12.0576, 318.94 12.5758, 318.99 13.004, 319.105 13.3495, 319.185 13.6194, 319.127 13.7525, 318.929 13.7525, 318.889 13.7525, 318.76 13.7237, 318.544 13.6662, 318.328 13.6086, 317.943 13.3783, 317.389 12.9752, 316.835 12.5722, 316.302 11.9136, 315.784 10.9888, 314.837 12.0684, 313.553 13.004, 311.93 13.8101 L 311.811 13.5798 C 313.355 12.6226, 314.56 11.5106, 315.431 10.2403, 315.154 9.28303, 314.967 8.27901, 314.866 7.22102, 314.769 6.16662, 314.719 4.96467, 314.719 3.61879 L 310.328 3.61879 C 310.372 6.15582, 310.292 7.92275, 310.094 8.91957, 309.897 9.91999, 309.558 10.8125, 309.083 11.597, 308.608 12.3851, 307.939 13.1588, 307.068 13.9253 L 306.888 13.7525 C 307.838 12.7161, 308.504 11.6185, 308.878 10.4454, 309.252 9.27584, 309.45 8.02711, 309.472 6.70281, 309.493 5.37852, 309.483 4.06502, 309.439 2.75511 L 310.328 3.27332, 314.719 3.27332 C 314.719 2.43124, 314.701 1.50999, 314.658 0.509567 L 315.964 1.14293, 315.55 1.4884, 315.55 3.27332, 317.565 3.27332, 318.217 2.58238, 319.224 3.61879, 315.55 3.61879 C 315.55 4.84952, 315.582 5.92551, 315.64 6.84676, 315.698 7.76801, 315.827 8.5921, 316.021 9.31902, 316.338 8.82241, 316.655 8.17106, 316.971 7.36496, 317.288 6.55887, 317.547 5.82835, 317.742 5.1734 L 318.929 5.97949, 318.396 6.26738 C 317.724 7.80759, 317.033 9.13189, 316.32 10.2403, 316.755 11.2407, 317.407 12.0108, 318.278 12.5434 Z M 310.746 5.34613 L 312.999 5.34613, 313.592 4.77035, 314.481 5.6916, 312.642 5.6916 C 312.088 5.6952, 311.635 5.75277, 311.278 5.86433 Z M 310.983 11.9676 C 311.023 11.1255, 311.041 10.2727, 311.041 9.40899, 311.041 8.54531, 311.023 7.69244, 310.983 6.84316 L 311.811 7.36136, 313.294 7.36136, 313.83 6.84316, 314.539 7.59168, 314.067 7.87957, 314.067 9.54933 C 314.067 9.8984, 314.089 10.3986, 314.125 11.0464 L 313.355 11.4494, 313.355 10.8736, 311.753 10.8736, 311.753 11.6221 Z M 311.753 7.70683 L 311.753 10.5282, 313.355 10.5282, 313.355 7.70683 Z M 316.083 0.970192 L 316.201 0.797458 C 317.27 1.18611, 317.835 1.474, 317.893 1.66473, 317.95 1.85905, 317.979 2.0102, 317.979 2.12175, 317.979 2.31608, 317.921 2.48162, 317.803 2.61477, 317.684 2.75152, 317.605 2.81629, 317.565 2.81269, 317.446 2.81629, 317.328 2.68314, 317.209 2.40965, 317.051 2.02819, 316.676 1.54957, 316.083 0.970192 Z" stroke="none" fill="#000000" />
			<path d="M 325.16 5.00066 L 325.16 7.01589, 327.298 7.01589, 327.298 5.00066 Z M 328.068 5.00066 L 328.068 7.01589, 330.263 7.01589, 330.263 5.00066 Z M 328.068 8.68566 C 328.068 10.0315, 328.089 11.1831, 328.125 12.1403 L 327.179 12.4858 C 327.258 11.3379, 327.298 9.91639, 327.298 8.22503, 326.11 9.65009, 324.768 10.7441, 323.264 11.507 L 323.145 11.3343 C 324.926 10.0315, 326.193 8.70725, 326.941 7.36136 L 325.16 7.36136, 325.16 7.87957, 324.39 8.16746, 324.39 4.25214, 325.16 4.65519, 327.298 4.65519, 327.298 3.043, 324.923 3.043 C 324.412 3.0466, 323.937 3.10418, 323.501 3.21574 L 322.969 2.69754, 327.298 2.69754 C 327.298 2.12535, 327.28 1.43442, 327.237 0.624723 L 328.6 1.14293, 328.068 1.54597, 328.068 2.69754, 330.738 2.69754, 331.508 2.06418, 332.516 3.043, 328.068 3.043, 328.068 4.65519, 330.144 4.65519, 330.558 4.07941, 331.566 4.71277, 331.033 5.11582 C 331.033 6.11624, 331.055 6.97991, 331.091 7.70683 L 330.263 7.99472, 330.263 7.36136, 328.068 7.36136, 328.068 8.39777 C 329.374 8.78642, 330.324 9.13189, 330.914 9.43777, 331.508 9.74726, 331.814 10.0711, 331.836 10.4166, 331.857 10.7621, 331.796 11.014, 331.656 11.1651, 331.519 11.3199, 331.213 11.1075, 330.738 10.5282, 330.263 9.95598, 329.374 9.34061, 328.068 8.68566 Z M 320.122 1.54597 L 320.298 1.43082 C 320.892 1.7403, 321.367 2.03899, 321.723 2.32688, 322.08 2.61477, 322.249 2.87387, 322.227 3.10418, 322.206 3.33449, 322.119 3.53602, 321.961 3.70875, 321.803 3.88149, 321.684 3.96785, 321.605 3.96425, 321.446 3.96785, 321.31 3.75553, 321.187 3.3309, 320.993 2.75871, 320.637 2.16494, 320.122 1.54597 Z M 322.314 10.9888 C 322.753 11.4134, 323.296 11.8201, 323.947 12.2015, 324.599 12.583, 325.765 12.7845, 327.445 12.8025, 329.126 12.8241, 331.015 12.7161, 333.109 12.4858 L 333.109 12.7161 C 332.361 12.9464, 331.965 13.2559, 331.922 13.6374, 330.105 13.677, 328.611 13.677, 327.445 13.6374, 326.279 13.6014, 325.322 13.4287, 324.57 13.1192, 323.818 12.8133, 323.246 12.4318, 322.85 11.9676, 322.414 11.5502, 322.098 11.3379, 321.9 11.3379, 321.705 11.3379, 321.389 11.561, 320.953 12, 320.518 12.4426, 320.201 12.8313, 320.003 13.1768 L 319.172 12.4282 C 319.805 11.8956, 320.597 11.3954, 321.543 10.9312 L 321.543 6.38254, 321.011 6.38254 C 320.5 6.38613, 320.025 6.44371, 319.586 6.55527 L 319.053 6.03707, 321.425 6.03707, 321.842 5.46129, 322.85 6.15222, 322.314 6.55527 Z" stroke="none" fill="#000000" />
			<path d="M 335.724 1.89144 L 335.724 4.13699, 338.095 4.13699, 338.095 1.89144 Z M 334.893 5.46129 C 334.936 4.69838, 334.954 3.93906, 334.954 3.19055, 334.954 2.44203, 334.936 1.72231, 334.893 1.02777 L 335.724 1.54597, 338.038 1.54597, 338.452 1.02777, 339.402 1.77629, 338.866 2.12175 C 338.866 3.50723, 338.887 4.41048, 338.927 4.82793 L 338.095 5.1734, 338.095 4.48246, 335.724 4.48246, 335.724 5.05824 Z M 344.677 9.77964 C 344.677 11.3954, 344.699 12.4894, 344.738 13.0616 L 343.85 13.4071, 343.85 12.4858, 341.179 12.4858, 341.179 13.3495, 340.348 13.6374 C 340.391 12.8313, 340.409 12.0396, 340.409 11.2515, 340.409 10.467, 340.391 9.70767, 340.348 8.97355 L 341.179 9.3766, 343.67 9.3766, 343.788 9.26144 C 342.446 8.53452, 341.439 7.69244, 340.766 6.728 L 338.984 6.728 C 337.959 7.92275, 336.832 8.80441, 335.605 9.3766 L 338.095 9.3766, 338.513 8.85839, 339.402 9.54933, 338.984 9.8948 C 338.984 11.5106, 339.006 12.565, 339.045 13.0616 L 338.214 13.3495, 338.214 12.4858, 335.9 12.4858, 335.9 13.2343, 335.073 13.5222 C 335.112 12.8709, 335.13 12.1835, 335.13 11.453, 335.13 10.7261, 335.13 10.1107, 335.13 9.60691, 334.342 9.88041, 333.59 10.0891, 332.877 10.2403 L 332.816 10.0675 C 333.925 9.68608, 334.896 9.23625, 335.724 8.71805, 336.555 8.19984, 337.325 7.5377, 338.038 6.728 L 335.191 6.728 C 334.677 6.7316, 334.202 6.78918, 333.766 6.90074 L 333.234 6.38254, 338.214 6.38254 C 338.57 5.84994, 338.887 5.29215, 339.164 4.71277 L 340.291 5.46129 C 339.895 5.61963, 339.52 5.92551, 339.164 6.38254 L 342.9 6.38254 C 342.705 5.84994, 342.309 5.38931, 341.712 5.00066 L 341.831 4.82793 C 342.587 5.02225, 343.062 5.19859, 343.256 5.34973, 343.454 5.50447, 343.551 5.63762, 343.551 5.74918, 343.551 5.9435, 343.454 6.15582, 343.256 6.38254 L 344.443 6.38254, 345.271 5.57644, 346.459 6.728, 341.122 6.728 C 341.795 7.34697, 342.576 7.86517, 343.465 8.28621, 344.353 8.71085, 345.451 8.93756, 346.754 8.97355 L 346.754 9.20386 C 346.124 9.28303, 345.75 9.55293, 345.627 10.01 L 344.738 9.72207 Z M 335.9 9.72207 L 335.9 12.1403, 338.214 12.1403, 338.214 9.72207 Z M 341.179 9.72207 L 341.179 12.1403, 343.85 12.1403, 343.85 9.72207 Z M 341.536 1.89144 L 341.536 4.13699, 343.85 4.13699, 343.85 1.89144 Z M 340.704 5.1734 C 340.748 4.48606, 340.766 3.78792, 340.766 3.07539, 340.766 2.36646, 340.748 1.68272, 340.704 1.02777 L 341.536 1.54597, 343.788 1.54597, 344.206 1.02777, 345.095 1.71871, 344.62 2.12175 C 344.62 3.39207, 344.641 4.27374, 344.677 4.77035 L 343.85 5.05824, 343.85 4.48246, 341.536 4.48246, 341.536 4.8855 Z" stroke="none" fill="#000000" />
			<path d="M -45.7475 0.140238 C -45.7475 -0.722261, -45.2663 -1.38476, -44.31 -1.85976 L 34.4837 -1.85976 C 29.6087 -5.38476, 25.8337 -9.65351, 23.1587 -14.6598, 21.4462 -17.8535, 20.3087 -21.0223, 19.7587 -24.1598 L 19.6525 -24.8598 C 19.6525 -25.5848, 20.34 -25.9535, 21.715 -25.9598, 22.9525 -25.9535, 23.6775 -25.4848, 23.8775 -24.5598, 24.0837 -23.2223, 24.4587 -21.8535, 25.0087 -20.4598, 28.3775 -10.6535, 34.9712 -4.15351, 44.7837 -0.959761, 45.4087 -0.753511, 45.715 -0.384762, 45.715 0.140238, 45.715 0.677738, 45.4087 1.04649, 44.7837 1.24024, 34.9712 4.44649, 28.3775 10.9465, 25.0087 20.7402, 24.5337 22.0777, 24.1525 23.4152, 23.8775 24.7402, 23.6775 25.7402, 22.9525 26.2402, 21.715 26.2402, 20.2775 26.2402, 19.5525 25.8777, 19.5525 25.1402, 19.5525 24.9465, 19.7587 24.1152, 20.1712 22.6402, 22.3025 14.3152, 27.0712 7.47774, 34.4837 2.14024 L -44.31 2.14024 C -45.2663 1.67774, -45.7475 1.01524, -45.7475 0.140238 Z" stroke="none" fill="#000000" transform="matrix(0.134 0 0 0.134 356.004 7.93832)" />
			<path d="M 365.706 10.5857 C 366.617 10.5138, 368.117 10.1863, 370.212 9.60691 L 370.33 9.77964 C 369.701 10.0136, 368.902 10.323, 367.93 10.7045, 366.962 11.0895, 366.437 11.3954, 366.358 11.6221 Z M 367.901 12.3131 C 368.614 12.5074, 369.157 12.6298, 369.532 12.6873, 369.906 12.7449, 370.194 12.4246, 370.392 11.7121, 370.59 11.0032, 370.787 9.74366, 370.985 7.93714 L 367.603 7.93714, 367.128 8.39777, 366.419 7.70683, 366.833 7.41894 C 366.912 7.07707, 366.991 6.42572, 367.07 5.46488, 367.149 4.50765, 367.189 3.64038, 367.189 2.87027 L 368.434 3.44605, 368.02 3.8491, 367.545 7.59168, 369.56 7.59168, 370.093 2.06418, 367.901 2.06418 C 367.387 2.06777, 366.912 2.12535, 366.476 2.23691 L 365.944 1.71871, 370.035 1.71871, 370.449 1.2005, 371.399 1.89144, 370.867 2.23691, 370.33 7.59168, 370.867 7.59168, 371.28 7.01589, 372.231 7.70683, 371.756 8.10988 C 371.558 9.72566, 371.399 10.8304, 371.28 11.4242, 371.165 12.0216, 370.978 12.5542, 370.719 13.0328, 370.46 13.515, 369.956 13.8101, 369.204 13.9253, 369.247 13.4287, 368.79 12.968, 367.84 12.5434 Z M 377.686 3.56121 L 378.751 4.3673, 378.28 4.65519 C 377.844 5.50447, 377.391 6.40413, 376.916 7.36136, 377.47 7.98033, 377.873 8.48773, 378.132 8.89078, 378.391 9.29383, 378.517 9.6213, 378.517 9.86961, 378.517 10.1215, 378.471 10.341, 378.37 10.5318, 378.269 10.7261, 378.179 10.8196, 378.1 10.8161, 377.985 10.8196, 377.826 10.5498, 377.625 10.01, 377.312 9.28303, 376.956 8.61369, 376.56 7.99472, 375.768 9.22545, 374.861 10.341, 373.832 11.3343 L 373.652 11.1615 C 374.76 9.85881, 375.574 8.63168, 376.085 7.47652, 375.574 6.63444, 374.861 5.63762, 373.951 4.48246 L 374.069 4.3673 C 374.742 4.94668, 375.534 5.77077, 376.441 6.84316, 376.995 5.65561, 377.409 4.56163, 377.686 3.56121 Z M 372.644 12.5434 C 372.644 7.55569, 372.626 3.8527, 372.587 1.43082 L 373.414 1.94902, 377.686 1.94902, 378.399 1.25808, 379.345 2.29449, 373.414 2.29449, 373.414 12.7161, 377.744 12.7161, 378.517 11.9676, 379.525 13.0616, 373.533 13.0616, 373.058 13.5798, 372.288 12.8313 Z" stroke="none" fill="#000000" />
			<path d="M 392.555 4.48246 L 392.08 4.8855 C 392.044 8.95916, 391.915 11.4062, 391.695 12.2303, 391.479 13.0544, 390.896 13.6014, 389.946 13.8677, 389.907 13.4467, 389.295 12.986, 388.108 12.4858 L 388.165 12.1979 C 388.996 12.3923, 389.648 12.4894, 390.123 12.4858, 390.36 12.4894, 390.551 12.4426, 390.688 12.3455, 390.824 12.2519, 390.943 11.7517, 391.044 10.8484, 391.145 9.94878, 391.231 7.88316, 391.31 4.65519 L 388.82 4.65519 C 388.78 6.11624, 388.611 7.42254, 388.316 8.5741, 388.021 9.72566, 387.485 10.7441, 386.715 11.6257, 385.945 12.511, 384.926 13.2919, 383.66 13.9828 L 383.48 13.8101 C 384.746 12.968, 385.689 12.1152, 386.301 11.2515, 386.913 10.3878, 387.348 9.41978, 387.604 8.34379, 387.863 7.2714, 388.01 6.04067, 388.046 4.65519 L 386.981 4.65519, 386.269 4.77035, 385.794 4.30972, 388.046 4.30972 C 388.046 2.70113, 388.028 1.474, 387.989 0.624723 L 389.234 1.2005, 388.82 1.60355, 388.82 4.30972, 391.192 4.30972, 391.667 3.79152 Z M 379.568 2.58238 L 383.836 2.58238, 384.548 1.89144, 385.617 2.92785, 381.288 2.92785 C 380.853 2.93145, 380.457 2.98903, 380.101 3.10058 Z M 379.093 5.51886 L 384.667 5.51886, 385.38 4.82793, 386.445 5.86433, 382.472 5.86433, 383.422 6.55527 C 383.026 6.71361, 382.512 7.2678, 381.878 8.22503, 381.209 9.18947, 380.597 9.95598, 380.043 10.5282 L 384.728 10.01 C 384.333 9.24705, 383.919 8.53452, 383.48 7.87957 L 383.66 7.76441 C 385.045 8.99514, 385.776 9.83362, 385.855 10.2727, 385.934 10.7153, 385.887 11.0212, 385.707 11.1939, 385.527 11.3666, 385.419 11.453, 385.38 11.4494, 385.261 11.453, 385.182 11.3558, 385.142 11.1615, 385.063 10.8952, 384.966 10.6073, 384.844 10.2978, 381.957 10.8017, 380.298 11.2803, 379.863 11.7373 L 379.212 10.5857 C 379.647 10.4742, 380.201 9.83362, 380.871 8.66047, 381.544 7.49091, 381.957 6.55887, 382.116 5.86433 L 380.219 5.86433, 379.568 5.97949 Z" stroke="none" fill="#000000" />
			<path d="M 395.997 6.78558 C 395.997 5.82835, 395.979 5.02225, 395.936 4.3673 L 397.3 4.94308, 396.768 5.34613, 396.768 6.78558, 397.243 6.78558, 397.955 6.09465, 398.963 7.13105, 396.768 7.13105, 396.768 9.20386, 399.2 8.45535, 399.258 8.68566, 396.768 9.72207 C 396.768 11.1831, 396.789 12.4498, 396.829 13.5222 L 395.936 13.9253 C 395.979 12.3563, 395.997 11.05, 395.997 10.01, 394.457 10.6289, 393.604 11.0895, 393.446 11.3918 L 392.733 10.2403 C 393.41 10.1287, 394.497 9.85881, 395.997 9.43418 L 395.997 7.13105, 394.396 7.13105, 393.982 7.5341, 393.27 6.78558, 393.745 6.44011, 394.81 3.56121, 394.396 3.56121 C 394.079 3.56481, 393.705 3.62238, 393.27 3.73394 L 392.733 3.21574, 394.929 3.21574 C 395.166 2.48882, 395.425 1.58916, 395.699 0.509567 L 397.005 1.37324, 396.293 1.71871, 395.76 3.21574, 397.538 3.21574, 398.311 2.46722, 399.377 3.56121, 395.641 3.56121, 394.454 6.78558 Z M 402.936 1.25808 L 402.403 1.66113 C 403.353 3.77713, 404.775 5.06184, 406.671 5.51886 L 406.671 5.6916 C 406.12 5.77077, 405.725 6.00108, 405.487 6.38254, 403.947 5.27416, 402.856 3.79512, 402.223 1.94902, 401.316 3.94986, 400.111 5.48288, 398.606 6.55527 L 398.488 6.38254 C 399.161 5.73478, 399.772 4.91789, 400.327 3.93906, 400.881 2.96024, 401.356 1.81947, 401.748 0.509567 Z M 400.089 8.91597 C 400.089 7.72842, 400.071 6.7316, 400.028 5.92191 L 401.453 6.61285, 400.859 7.01589, 400.859 9.54933 C 402.245 8.67127, 403.331 7.71043, 404.123 6.67043 L 405.07 7.76441, 404.299 7.87957 C 403.155 8.64967, 402.007 9.30462, 400.859 9.83722 L 400.859 11.6797 C 400.823 12.4894, 401.18 12.8529, 401.928 12.7737 L 403.943 12.7737 C 404.339 12.7737, 404.559 12.4534, 404.598 11.7985, 404.638 11.1471, 404.656 10.6073, 404.656 10.1827 L 404.893 10.1827 C 404.933 10.6865, 404.983 11.1867, 405.041 11.6833, 405.102 12.1835, 405.35 12.4894, 405.782 12.601, 405.545 13.1408, 405.052 13.4287, 404.299 13.4646 L 401.453 13.4646 C 400.503 13.4646, 400.05 13.0436, 400.089 12.1979 Z" stroke="none" fill="#000000" />
			<rect />
		</svg>
	</g>
</svg>
